<mxfile host="Electron" modified="2024-09-28T08:07:31.580Z" agent="Mozilla/5.0 (X11; Linux x86_64) AppleWebKit/537.36 (KHTML, like Gecko) draw.io/24.1.0 Chrome/120.0.6099.109 Electron/28.1.0 Safari/537.36" etag="8Xuu5rNIo28PPMkY3S8q" version="24.1.0" type="device">
  <diagram id="C5RBs43oDa-KdzZeNtuy" name="Page-1">
    <mxGraphModel dx="1687" dy="968" grid="1" gridSize="10" guides="1" tooltips="1" connect="1" arrows="1" fold="1" page="1" pageScale="1" pageWidth="827" pageHeight="1169" math="0" shadow="0">
      <root>
        <mxCell id="WIyWlLk6GJQsqaUBKTNV-0" />
        <mxCell id="WIyWlLk6GJQsqaUBKTNV-1" parent="WIyWlLk6GJQsqaUBKTNV-0" />
        <mxCell id="WIyWlLk6GJQsqaUBKTNV-2" value="" style="rounded=0;html=1;jettySize=auto;orthogonalLoop=1;fontSize=11;endArrow=block;endFill=0;endSize=8;strokeWidth=1;shadow=1;labelBackgroundColor=none;edgeStyle=orthogonalEdgeStyle;sketch=1;curveFitting=1;jiggle=2;entryX=0.5;entryY=0;entryDx=0;entryDy=0;" parent="WIyWlLk6GJQsqaUBKTNV-1" source="WIyWlLk6GJQsqaUBKTNV-3" target="QQi6kv3C0ZGWCtcUiTKL-1" edge="1">
          <mxGeometry relative="1" as="geometry">
            <mxPoint x="220" y="170" as="targetPoint" />
          </mxGeometry>
        </mxCell>
        <mxCell id="WIyWlLk6GJQsqaUBKTNV-3" value="微信小程序登陆流程" style="rounded=1;whiteSpace=wrap;html=1;fontSize=12;glass=0;strokeWidth=1;shadow=1;sketch=1;curveFitting=1;jiggle=2;" parent="WIyWlLk6GJQsqaUBKTNV-1" vertex="1">
          <mxGeometry x="160" y="80" width="120" height="40" as="geometry" />
        </mxCell>
        <mxCell id="QQi6kv3C0ZGWCtcUiTKL-8" value="" style="edgeStyle=orthogonalEdgeStyle;rounded=0;orthogonalLoop=1;jettySize=auto;html=1;" edge="1" parent="WIyWlLk6GJQsqaUBKTNV-1" source="QQi6kv3C0ZGWCtcUiTKL-1">
          <mxGeometry relative="1" as="geometry">
            <mxPoint x="220" y="310" as="targetPoint" />
          </mxGeometry>
        </mxCell>
        <mxCell id="QQi6kv3C0ZGWCtcUiTKL-9" value="" style="edgeStyle=orthogonalEdgeStyle;rounded=0;orthogonalLoop=1;jettySize=auto;html=1;" edge="1" parent="WIyWlLk6GJQsqaUBKTNV-1" source="QQi6kv3C0ZGWCtcUiTKL-1">
          <mxGeometry relative="1" as="geometry">
            <mxPoint x="220" y="310" as="targetPoint" />
          </mxGeometry>
        </mxCell>
        <mxCell id="QQi6kv3C0ZGWCtcUiTKL-10" value="" style="edgeStyle=orthogonalEdgeStyle;rounded=0;orthogonalLoop=1;jettySize=auto;html=1;" edge="1" parent="WIyWlLk6GJQsqaUBKTNV-1" source="QQi6kv3C0ZGWCtcUiTKL-1">
          <mxGeometry relative="1" as="geometry">
            <mxPoint x="220" y="310" as="targetPoint" />
          </mxGeometry>
        </mxCell>
        <mxCell id="QQi6kv3C0ZGWCtcUiTKL-12" value="" style="edgeStyle=orthogonalEdgeStyle;rounded=0;orthogonalLoop=1;jettySize=auto;html=1;" edge="1" parent="WIyWlLk6GJQsqaUBKTNV-1" source="QQi6kv3C0ZGWCtcUiTKL-1" target="QQi6kv3C0ZGWCtcUiTKL-11">
          <mxGeometry relative="1" as="geometry" />
        </mxCell>
        <mxCell id="QQi6kv3C0ZGWCtcUiTKL-1" value="小程序登录请求&lt;div&gt;wx.login&amp;nbsp;&lt;span style=&quot;color: rgba(0, 0, 0, 0); font-family: monospace; font-size: 0px; text-align: start; text-wrap: nowrap; background-color: initial;&quot;&gt;%3CmxGraphModel%3E%3Croot%3E%3CmxCell%20id%3D%220%22%2F%3E%3CmxCell%20id%3D%221%22%20parent%3D%220%22%2F%3E%3CmxCell%20id%3D%222%22%20value%3D%22Plug%20in%20lamp%22%20style%3D%22rounded%3D1%3BwhiteSpace%3Dwrap%3Bhtml%3D1%3BfontSize%3D12%3Bglass%3D0%3BstrokeWidth%3D1%3Bshadow%3D1%3Bsketch%3D1%3BcurveFitting%3D1%3Bjiggle%3D2%3B%22%20vertex%3D%221%22%20parent%3D%221%22%3E%3CmxGeometry%20x%3D%22320%22%20y%3D%22190%22%20width%3D%22120%22%20height%3D%2240%22%20as%3D%22geometry%22%2F%3E%3C%2FmxCell%3E%3C%2Froot%3E%3C%2FmxGraphModel%3E&lt;/span&gt;&lt;span style=&quot;background-color: initial;&quot;&gt;获取code&lt;/span&gt;&lt;/div&gt;" style="rounded=1;whiteSpace=wrap;html=1;fontSize=12;glass=0;strokeWidth=1;shadow=1;sketch=1;curveFitting=1;jiggle=2;" vertex="1" parent="WIyWlLk6GJQsqaUBKTNV-1">
          <mxGeometry x="160" y="190" width="120" height="40" as="geometry" />
        </mxCell>
        <mxCell id="QQi6kv3C0ZGWCtcUiTKL-14" value="" style="edgeStyle=orthogonalEdgeStyle;rounded=0;orthogonalLoop=1;jettySize=auto;html=1;" edge="1" parent="WIyWlLk6GJQsqaUBKTNV-1" source="QQi6kv3C0ZGWCtcUiTKL-11" target="QQi6kv3C0ZGWCtcUiTKL-15">
          <mxGeometry relative="1" as="geometry" />
        </mxCell>
        <mxCell id="QQi6kv3C0ZGWCtcUiTKL-11" value="&lt;span style=&quot;color: rgb(0, 0, 0); font-family: Helvetica; font-size: 12px; font-style: normal; font-variant-ligatures: normal; font-variant-caps: normal; font-weight: 400; letter-spacing: normal; orphans: 2; text-align: center; text-indent: 0px; text-transform: none; widows: 2; word-spacing: 0px; -webkit-text-stroke-width: 0px; white-space: normal; background-color: rgb(251, 251, 251); text-decoration-thickness: initial; text-decoration-style: initial; text-decoration-color: initial; display: inline !important; float: none;&quot;&gt;后端接口获取code值&lt;/span&gt;" style="whiteSpace=wrap;html=1;rounded=1;glass=0;strokeWidth=1;shadow=1;sketch=1;curveFitting=1;jiggle=2;" vertex="1" parent="WIyWlLk6GJQsqaUBKTNV-1">
          <mxGeometry x="160" y="300" width="120" height="60" as="geometry" />
        </mxCell>
        <mxCell id="QQi6kv3C0ZGWCtcUiTKL-17" value="" style="edgeStyle=orthogonalEdgeStyle;rounded=0;orthogonalLoop=1;jettySize=auto;html=1;" edge="1" parent="WIyWlLk6GJQsqaUBKTNV-1" source="QQi6kv3C0ZGWCtcUiTKL-15" target="QQi6kv3C0ZGWCtcUiTKL-16">
          <mxGeometry relative="1" as="geometry" />
        </mxCell>
        <mxCell id="QQi6kv3C0ZGWCtcUiTKL-15" value="&lt;div&gt;登录凭证校验&lt;br&gt;appid + appsecret +code&lt;/div&gt;&lt;div&gt;返回openid&lt;/div&gt;" style="whiteSpace=wrap;html=1;rounded=1;glass=0;strokeWidth=1;shadow=1;sketch=1;curveFitting=1;jiggle=2;" vertex="1" parent="WIyWlLk6GJQsqaUBKTNV-1">
          <mxGeometry x="140" y="430" width="160" height="90" as="geometry" />
        </mxCell>
        <mxCell id="QQi6kv3C0ZGWCtcUiTKL-19" value="" style="edgeStyle=orthogonalEdgeStyle;rounded=0;orthogonalLoop=1;jettySize=auto;html=1;" edge="1" parent="WIyWlLk6GJQsqaUBKTNV-1" source="QQi6kv3C0ZGWCtcUiTKL-16" target="QQi6kv3C0ZGWCtcUiTKL-18">
          <mxGeometry relative="1" as="geometry" />
        </mxCell>
        <mxCell id="QQi6kv3C0ZGWCtcUiTKL-20" value="no" style="edgeLabel;html=1;align=center;verticalAlign=middle;resizable=0;points=[];" vertex="1" connectable="0" parent="QQi6kv3C0ZGWCtcUiTKL-19">
          <mxGeometry x="-0.1103" y="2" relative="1" as="geometry">
            <mxPoint as="offset" />
          </mxGeometry>
        </mxCell>
        <mxCell id="QQi6kv3C0ZGWCtcUiTKL-22" value="" style="edgeStyle=orthogonalEdgeStyle;rounded=0;orthogonalLoop=1;jettySize=auto;html=1;" edge="1" parent="WIyWlLk6GJQsqaUBKTNV-1" source="QQi6kv3C0ZGWCtcUiTKL-16" target="QQi6kv3C0ZGWCtcUiTKL-21">
          <mxGeometry relative="1" as="geometry" />
        </mxCell>
        <mxCell id="QQi6kv3C0ZGWCtcUiTKL-23" value="yes" style="edgeLabel;html=1;align=center;verticalAlign=middle;resizable=0;points=[];" vertex="1" connectable="0" parent="QQi6kv3C0ZGWCtcUiTKL-22">
          <mxGeometry x="-0.1246" y="1" relative="1" as="geometry">
            <mxPoint as="offset" />
          </mxGeometry>
        </mxCell>
        <mxCell id="QQi6kv3C0ZGWCtcUiTKL-16" value="openid判断是否&lt;div&gt;第一次登录&lt;/div&gt;" style="rhombus;whiteSpace=wrap;html=1;rounded=1;glass=0;strokeWidth=1;shadow=1;sketch=1;curveFitting=1;jiggle=2;" vertex="1" parent="WIyWlLk6GJQsqaUBKTNV-1">
          <mxGeometry x="160" y="615" width="120" height="125" as="geometry" />
        </mxCell>
        <mxCell id="QQi6kv3C0ZGWCtcUiTKL-25" value="" style="edgeStyle=orthogonalEdgeStyle;rounded=0;orthogonalLoop=1;jettySize=auto;html=1;" edge="1" parent="WIyWlLk6GJQsqaUBKTNV-1" source="QQi6kv3C0ZGWCtcUiTKL-18" target="QQi6kv3C0ZGWCtcUiTKL-24">
          <mxGeometry relative="1" as="geometry" />
        </mxCell>
        <mxCell id="QQi6kv3C0ZGWCtcUiTKL-18" value="注册" style="whiteSpace=wrap;html=1;rounded=1;glass=0;strokeWidth=1;shadow=1;sketch=1;curveFitting=1;jiggle=2;" vertex="1" parent="WIyWlLk6GJQsqaUBKTNV-1">
          <mxGeometry x="390" y="647.5" width="120" height="60" as="geometry" />
        </mxCell>
        <mxCell id="QQi6kv3C0ZGWCtcUiTKL-27" value="" style="edgeStyle=orthogonalEdgeStyle;rounded=0;orthogonalLoop=1;jettySize=auto;html=1;" edge="1" parent="WIyWlLk6GJQsqaUBKTNV-1" source="QQi6kv3C0ZGWCtcUiTKL-21" target="QQi6kv3C0ZGWCtcUiTKL-26">
          <mxGeometry relative="1" as="geometry" />
        </mxCell>
        <mxCell id="QQi6kv3C0ZGWCtcUiTKL-21" value="返回用户id" style="whiteSpace=wrap;html=1;rounded=1;glass=0;strokeWidth=1;shadow=1;sketch=1;curveFitting=1;jiggle=2;" vertex="1" parent="WIyWlLk6GJQsqaUBKTNV-1">
          <mxGeometry x="160" y="852.5" width="120" height="60" as="geometry" />
        </mxCell>
        <mxCell id="QQi6kv3C0ZGWCtcUiTKL-28" value="" style="edgeStyle=orthogonalEdgeStyle;rounded=0;orthogonalLoop=1;jettySize=auto;html=1;" edge="1" parent="WIyWlLk6GJQsqaUBKTNV-1" source="QQi6kv3C0ZGWCtcUiTKL-24" target="QQi6kv3C0ZGWCtcUiTKL-21">
          <mxGeometry relative="1" as="geometry" />
        </mxCell>
        <mxCell id="QQi6kv3C0ZGWCtcUiTKL-24" value="新增用户信息，生成登录日志信息" style="whiteSpace=wrap;html=1;rounded=1;glass=0;strokeWidth=1;shadow=1;sketch=1;curveFitting=1;jiggle=2;" vertex="1" parent="WIyWlLk6GJQsqaUBKTNV-1">
          <mxGeometry x="390" y="852.5" width="120" height="60" as="geometry" />
        </mxCell>
        <mxCell id="QQi6kv3C0ZGWCtcUiTKL-26" value="生成token，存入redis，设置过期时间" style="whiteSpace=wrap;html=1;rounded=1;glass=0;strokeWidth=1;shadow=1;sketch=1;curveFitting=1;jiggle=2;" vertex="1" parent="WIyWlLk6GJQsqaUBKTNV-1">
          <mxGeometry x="160" y="992.5" width="120" height="60" as="geometry" />
        </mxCell>
      </root>
    </mxGraphModel>
  </diagram>
</mxfile>
